<?xml version="1.0" encoding="UTF-8"?>
<!--Generator: Apple Native CoreSVG 149-->
<!DOCTYPE svg
PUBLIC "-//W3C//DTD SVG 1.1//EN"
       "http://www.w3.org/Graphics/SVG/1.1/DTD/svg11.dtd">
<svg version="1.1" xmlns="http://www.w3.org/2000/svg" xmlns:xlink="http://www.w3.org/1999/xlink" width="3300" height="2200">
 <!--glyph: "uni10006C.medium", point size: 100.000000, font version: "Version 16.0d18e1", template writer version: "8"-->
 <g id="Notes">
  <rect height="2200" id="artboard" style="fill:white;opacity:1" width="3300" x="0" y="0"/>
  <line id="" style="fill:none;stroke:black;opacity:1;stroke-width:0.5;" x1="263" x2="3036" y1="292" y2="292"/>
  <text style="stroke:none;fill:black;font-family:-apple-system,&quot;SF Pro Display&quot;,&quot;SF Pro Text&quot;,Helvetica,sans-serif;font-weight:bold;" transform="matrix(1 0 0 1 263 322)">Weight/Scale Variations</text>
  <text style="stroke:none;fill:black;font-family:-apple-system,&quot;SF Pro Display&quot;,&quot;SF Pro Text&quot;,Helvetica,sans-serif;text-anchor:middle;" transform="matrix(1 0 0 1 559.711 322)">Ultralight</text>
  <text style="stroke:none;fill:black;font-family:-apple-system,&quot;SF Pro Display&quot;,&quot;SF Pro Text&quot;,Helvetica,sans-serif;text-anchor:middle;" transform="matrix(1 0 0 1 856.422 322)">Thin</text>
  <text style="stroke:none;fill:black;font-family:-apple-system,&quot;SF Pro Display&quot;,&quot;SF Pro Text&quot;,Helvetica,sans-serif;text-anchor:middle;" transform="matrix(1 0 0 1 1153.13 322)">Light</text>
  <text style="stroke:none;fill:black;font-family:-apple-system,&quot;SF Pro Display&quot;,&quot;SF Pro Text&quot;,Helvetica,sans-serif;text-anchor:middle;" transform="matrix(1 0 0 1 1449.84 322)">Regular</text>
  <text style="stroke:none;fill:black;font-family:-apple-system,&quot;SF Pro Display&quot;,&quot;SF Pro Text&quot;,Helvetica,sans-serif;text-anchor:middle;" transform="matrix(1 0 0 1 1746.56 322)">Medium</text>
  <text style="stroke:none;fill:black;font-family:-apple-system,&quot;SF Pro Display&quot;,&quot;SF Pro Text&quot;,Helvetica,sans-serif;text-anchor:middle;" transform="matrix(1 0 0 1 2043.27 322)">Semibold</text>
  <text style="stroke:none;fill:black;font-family:-apple-system,&quot;SF Pro Display&quot;,&quot;SF Pro Text&quot;,Helvetica,sans-serif;text-anchor:middle;" transform="matrix(1 0 0 1 2339.98 322)">Bold</text>
  <text style="stroke:none;fill:black;font-family:-apple-system,&quot;SF Pro Display&quot;,&quot;SF Pro Text&quot;,Helvetica,sans-serif;text-anchor:middle;" transform="matrix(1 0 0 1 2636.69 322)">Heavy</text>
  <text style="stroke:none;fill:black;font-family:-apple-system,&quot;SF Pro Display&quot;,&quot;SF Pro Text&quot;,Helvetica,sans-serif;text-anchor:middle;" transform="matrix(1 0 0 1 2933.4 322)">Black</text>
  <line id="" style="fill:none;stroke:black;opacity:1;stroke-width:0.5;" x1="263" x2="3036" y1="1903" y2="1903"/>
  <g id="" transform="matrix(1 0 0 1 263 1933)">
   <path d="M9.24805 0.830078C13.5547 0.830078 17.1387-2.74414 17.1387-7.05078C17.1387-11.3574 13.5449-14.9316 9.23828-14.9316C4.94141-14.9316 1.36719-11.3574 1.36719-7.05078C1.36719-2.74414 4.95117 0.830078 9.24805 0.830078ZM9.24805-0.654297C5.70312-0.654297 2.87109-3.49609 2.87109-7.05078C2.87109-10.6055 5.69336-13.4473 9.23828-13.4473C12.793-13.4473 15.6348-10.6055 15.6445-7.05078C15.6543-3.49609 12.8027-0.654297 9.24805-0.654297ZM6.39648-6.31836L8.50586-6.31836L8.50586-4.19922C8.50586-3.75977 8.79883-3.45703 9.22852-3.45703C9.67773-3.45703 9.9707-3.75977 9.9707-4.19922L9.9707-6.31836L12.0996-6.31836C12.5391-6.31836 12.8418-6.61133 12.8418-7.04102C12.8418-7.48047 12.5391-7.7832 12.0996-7.7832L9.9707-7.7832L9.9707-9.89258C9.9707-10.3418 9.67773-10.6445 9.22852-10.6445C8.79883-10.6445 8.50586-10.3418 8.50586-9.89258L8.50586-7.7832L6.39648-7.7832C5.94727-7.7832 5.64453-7.48047 5.64453-7.04102C5.64453-6.61133 5.94727-6.31836 6.39648-6.31836Z"/>
  </g>
  <g id="" transform="matrix(1 0 0 1 281.506 1933)">
   <path d="M11.709 2.91016C17.1582 2.91016 21.6699-1.61133 21.6699-7.05078C21.6699-12.5 17.1484-17.0117 11.6992-17.0117C6.25977-17.0117 1.74805-12.5 1.74805-7.05078C1.74805-1.61133 6.26953 2.91016 11.709 2.91016ZM11.709 1.25C7.09961 1.25 3.41797-2.44141 3.41797-7.05078C3.41797-11.6602 7.08984-15.3516 11.6992-15.3516C16.3086-15.3516 20-11.6602 20.0098-7.05078C20.0195-2.44141 16.3184 1.25 11.709 1.25ZM7.98828-6.23047L10.8789-6.23047L10.8789-3.32031C10.8789-2.83203 11.2109-2.5 11.6895-2.5C12.1777-2.5 12.5195-2.83203 12.5195-3.32031L12.5195-6.23047L15.4297-6.23047C15.918-6.23047 16.25-6.5625 16.25-7.04102C16.25-7.5293 15.918-7.87109 15.4297-7.87109L12.5195-7.87109L12.5195-10.7617C12.5195-11.2695 12.1777-11.6016 11.6895-11.6016C11.2109-11.6016 10.8789-11.2598 10.8789-10.7617L10.8789-7.87109L7.98828-7.87109C7.48047-7.87109 7.14844-7.5293 7.14844-7.04102C7.14844-6.5625 7.49023-6.23047 7.98828-6.23047Z"/>
  </g>
  <g id="" transform="matrix(1 0 0 1 304.924 1933)">
   <path d="M14.9707 5.66406C21.9336 5.66406 27.6953-0.0976562 27.6953-7.05078C27.6953-14.0137 21.9238-19.7754 14.9609-19.7754C8.00781-19.7754 2.25586-14.0137 2.25586-7.05078C2.25586-0.0976562 8.01758 5.66406 14.9707 5.66406ZM14.9707 3.84766C8.93555 3.84766 4.08203-1.01562 4.08203-7.05078C4.08203-13.0957 8.92578-17.9492 14.9609-17.9492C21.0059-17.9492 25.8594-13.0957 25.8691-7.05078C25.8789-1.01562 21.0156 3.84766 14.9707 3.84766ZM10.0586-6.14258L14.0625-6.14258L14.0625-2.12891C14.0625-1.5918 14.4336-1.2207 14.9512-1.2207C15.4883-1.2207 15.8594-1.5918 15.8594-2.12891L15.8594-6.14258L19.8828-6.14258C20.4102-6.14258 20.791-6.51367 20.791-7.03125C20.791-7.56836 20.4199-7.94922 19.8828-7.94922L15.8594-7.94922L15.8594-11.9531C15.8594-12.5098 15.4883-12.8809 14.9512-12.8809C14.4336-12.8809 14.0625-12.5 14.0625-11.9531L14.0625-7.94922L10.0586-7.94922C9.50195-7.94922 9.13086-7.56836 9.13086-7.03125C9.13086-6.51367 9.51172-6.14258 10.0586-6.14258Z"/>
  </g>
  <text style="stroke:none;fill:black;font-family:-apple-system,&quot;SF Pro Display&quot;,&quot;SF Pro Text&quot;,Helvetica,sans-serif;font-weight:bold;" transform="matrix(1 0 0 1 263 1953)">Design Variations</text>
  <text style="stroke:none;fill:black;font-family:-apple-system,&quot;SF Pro Display&quot;,&quot;SF Pro Text&quot;,Helvetica,sans-serif;" transform="matrix(1 0 0 1 263 1971)">Symbols are supported in up to nine weights and three scales.</text>
  <text style="stroke:none;fill:black;font-family:-apple-system,&quot;SF Pro Display&quot;,&quot;SF Pro Text&quot;,Helvetica,sans-serif;" transform="matrix(1 0 0 1 263 1989)">For optimal layout with text and other symbols, vertically align</text>
  <text style="stroke:none;fill:black;font-family:-apple-system,&quot;SF Pro Display&quot;,&quot;SF Pro Text&quot;,Helvetica,sans-serif;" transform="matrix(1 0 0 1 263 2007)">symbols with the adjacent text.</text>
  <line id="" style="fill:none;stroke:#00AEEF;stroke-width:0.5;opacity:1.0;" x1="776" x2="776" y1="1919" y2="1933"/>
  <g id="" transform="matrix(1 0 0 1 776 1933)">
   <path d="M3.31055 0.126953C3.82812 0.126953 4.08203-0.0683594 4.26758-0.605469L5.52734-4.0625L11.2891-4.0625L12.5488-0.605469C12.7344-0.0683594 12.9883 0.126953 13.4961 0.126953C14.0137 0.126953 14.3457-0.185547 14.3457-0.673828C14.3457-0.839844 14.3164-0.986328 14.2383-1.20117L9.6582-13.3887C9.43359-13.9941 9.0332-14.2871 8.4082-14.2871C7.80273-14.2871 7.39258-13.9941 7.17773-13.3984L2.59766-1.19141C2.51953-0.976562 2.49023-0.830078 2.49023-0.664062C2.49023-0.175781 2.80273 0.126953 3.31055 0.126953ZM6.00586-5.53711L8.37891-12.1094L8.42773-12.1094L10.8008-5.53711Z"/>
  </g>
  <line id="" style="fill:none;stroke:#00AEEF;stroke-width:0.5;opacity:1.0;" x1="792.836" x2="792.836" y1="1919" y2="1933"/>
  <text style="stroke:none;fill:black;font-family:-apple-system,&quot;SF Pro Display&quot;,&quot;SF Pro Text&quot;,Helvetica,sans-serif;font-weight:bold;" transform="matrix(1 0 0 1 776 1953)">Margins</text>
  <text style="stroke:none;fill:black;font-family:-apple-system,&quot;SF Pro Display&quot;,&quot;SF Pro Text&quot;,Helvetica,sans-serif;" transform="matrix(1 0 0 1 776 1971)">Leading and trailing margins on the left and right side of each symbol</text>
  <text style="stroke:none;fill:black;font-family:-apple-system,&quot;SF Pro Display&quot;,&quot;SF Pro Text&quot;,Helvetica,sans-serif;" transform="matrix(1 0 0 1 776 1989)">can be adjusted by modifying the x-location of the margin guidelines.</text>
  <text style="stroke:none;fill:black;font-family:-apple-system,&quot;SF Pro Display&quot;,&quot;SF Pro Text&quot;,Helvetica,sans-serif;" transform="matrix(1 0 0 1 776 2007)">Modifications are automatically applied proportionally to all</text>
  <text style="stroke:none;fill:black;font-family:-apple-system,&quot;SF Pro Display&quot;,&quot;SF Pro Text&quot;,Helvetica,sans-serif;" transform="matrix(1 0 0 1 776 2025)">scales and weights.</text>
  <g id="" transform="matrix(1 0 0 1 1289 1933)">
   <path d="M2.8418 1.86523L4.54102 3.57422C5.40039 4.44336 6.38672 4.38477 7.31445 3.35938L17.4902-7.85156C17.7539-7.76367 18.0273-7.7832 18.3398-7.8418L19.4043-8.03711L20.0684-7.36328L20.0293-6.80664C19.9902-6.30859 20.1172-5.92773 20.6055-5.44922L21.3672-4.70703C21.8457-4.22852 22.4609-4.19922 22.9297-4.66797L25.8398-7.58789C26.3086-8.05664 26.2891-8.65234 25.8105-9.13086L25.0391-9.89258C24.5605-10.3711 24.1895-10.5273 23.7109-10.4883L23.1348-10.4395L22.4902-11.0742L22.7344-12.1973C22.8613-12.7637 22.7051-13.2031 22.1191-13.7891L19.9219-15.9766C16.582-19.2969 12.1484-19.2188 9.25781-16.3281C8.83789-15.918 8.80859-15.3418 9.04297-14.9512C9.27734-14.5898 9.73633-14.3555 10.3809-14.5215C11.8457-14.8633 13.3691-14.9219 14.7949-13.9844L14.209-12.5293C14.0137-12.0508 13.9844-11.6504 14.1113-11.2891L3.04688-0.898438C2.06055 0.0195312 1.98242 0.996094 2.8418 1.86523ZM10.752-15.957C13.1836-17.7344 16.4746-17.4316 18.7012-15.2051L21.1328-12.793C21.3672-12.5586 21.4062-12.373 21.3379-12.0312L21.0156-10.5469L22.5195-9.0625L23.5059-9.12109C23.7598-9.13086 23.8379-9.11133 24.0332-8.91602L24.6094-8.33984L22.168-5.89844L21.5918-6.47461C21.3965-6.66992 21.3672-6.74805 21.377-7.01172L21.4453-7.98828L19.9512-9.47266L18.4277-9.21875C18.1055-9.15039 17.959-9.17969 17.7148-9.41406L15.7129-11.416C15.459-11.6504 15.4297-11.8164 15.5859-12.1875L16.4648-14.2773C14.9023-15.7324 12.8711-16.3574 10.8398-15.7617C10.6836-15.7227 10.625-15.8496 10.752-15.957ZM5.27344 2.30469L4.10156 1.14258C3.63281 0.683594 3.74023 0.341797 4.14062-0.0195312L14.9512-10.1953L16.416-8.71094L6.42578 2.27539C6.07422 2.67578 5.74219 2.77344 5.27344 2.30469Z"/>
  </g>
  <text style="stroke:none;fill:black;font-family:-apple-system,&quot;SF Pro Display&quot;,&quot;SF Pro Text&quot;,Helvetica,sans-serif;font-weight:bold;" transform="matrix(1 0 0 1 1289 1953)">Exporting</text>
  <text style="stroke:none;fill:black;font-family:-apple-system,&quot;SF Pro Display&quot;,&quot;SF Pro Text&quot;,Helvetica,sans-serif;" transform="matrix(1 0 0 1 1289 1971)">Symbols should be outlined when exporting to ensure the</text>
  <text style="stroke:none;fill:black;font-family:-apple-system,&quot;SF Pro Display&quot;,&quot;SF Pro Text&quot;,Helvetica,sans-serif;" transform="matrix(1 0 0 1 1289 1989)">design is preserved when submitting to Xcode.</text>
  <text id="template-version" style="stroke:none;fill:black;font-family:-apple-system,&quot;SF Pro Display&quot;,&quot;SF Pro Text&quot;,Helvetica,sans-serif;text-anchor:end;" transform="matrix(1 0 0 1 3036 1933)">Template v.2.0</text>
  <text style="stroke:none;fill:black;font-family:-apple-system,&quot;SF Pro Display&quot;,&quot;SF Pro Text&quot;,Helvetica,sans-serif;text-anchor:end;" transform="matrix(1 0 0 1 3036 1951)">Requires Xcode 12 or greater</text>
  <text style="stroke:none;fill:black;font-family:-apple-system,&quot;SF Pro Display&quot;,&quot;SF Pro Text&quot;,Helvetica,sans-serif;text-anchor:end;" transform="matrix(1 0 0 1 3036 1969)">Generated from arrowtriangle.right.circle</text>
  <text style="stroke:none;fill:black;font-family:-apple-system,&quot;SF Pro Display&quot;,&quot;SF Pro Text&quot;,Helvetica,sans-serif;text-anchor:end;" transform="matrix(1 0 0 1 3036 1987)">Typeset at 100 points</text>
  <text style="stroke:none;fill:black;font-family:-apple-system,&quot;SF Pro Display&quot;,&quot;SF Pro Text&quot;,Helvetica,sans-serif;" transform="matrix(1 0 0 1 263 726)">Small</text>
  <text style="stroke:none;fill:black;font-family:-apple-system,&quot;SF Pro Display&quot;,&quot;SF Pro Text&quot;,Helvetica,sans-serif;" transform="matrix(1 0 0 1 263 1156)">Medium</text>
  <text style="stroke:none;fill:black;font-family:-apple-system,&quot;SF Pro Display&quot;,&quot;SF Pro Text&quot;,Helvetica,sans-serif;" transform="matrix(1 0 0 1 263 1586)">Large</text>
 </g>
 <g id="Guides">
  <g id="H-reference" style="fill:#27AAE1;stroke:none;" transform="matrix(1 0 0 1 339 696)">
   <path d="M0.976562 0L3.66211 0L12.9883-24.4629L45.752-24.4629L55.127 0L57.7637 0L30.6152-70.459L28.125-70.459ZM29.3457-67.1387L29.4434-67.1387L44.873-26.709L13.8672-26.709Z"/>
  </g>
  <line id="Baseline-S" style="fill:none;stroke:#27AAE1;opacity:1;stroke-width:0.5;" x1="263" x2="3036" y1="696" y2="696"/>
  <line id="Capline-S" style="fill:none;stroke:#27AAE1;opacity:1;stroke-width:0.5;" x1="263" x2="3036" y1="625.541" y2="625.541"/>
  <g id="H-reference" style="fill:#27AAE1;stroke:none;" transform="matrix(1 0 0 1 339 1126)">
   <path d="M0.976562 0L3.66211 0L12.9883-24.4629L45.752-24.4629L55.127 0L57.7637 0L30.6152-70.459L28.125-70.459ZM29.3457-67.1387L29.4434-67.1387L44.873-26.709L13.8672-26.709Z"/>
  </g>
  <line id="Baseline-M" style="fill:none;stroke:#27AAE1;opacity:1;stroke-width:0.5;" x1="263" x2="3036" y1="1126" y2="1126"/>
  <line id="Capline-M" style="fill:none;stroke:#27AAE1;opacity:1;stroke-width:0.5;" x1="263" x2="3036" y1="1055.54" y2="1055.54"/>
  <g id="H-reference" style="fill:#27AAE1;stroke:none;" transform="matrix(1 0 0 1 339 1556)">
   <path d="M0.976562 0L3.66211 0L12.9883-24.4629L45.752-24.4629L55.127 0L57.7637 0L30.6152-70.459L28.125-70.459ZM29.3457-67.1387L29.4434-67.1387L44.873-26.709L13.8672-26.709Z"/>
  </g>
  <line id="Baseline-L" style="fill:none;stroke:#27AAE1;opacity:1;stroke-width:0.5;" x1="263" x2="3036" y1="1556" y2="1556"/>
  <line id="Capline-L" style="fill:none;stroke:#27AAE1;opacity:1;stroke-width:0.5;" x1="263" x2="3036" y1="1485.54" y2="1485.54"/>
  <line id="left-margin" style="fill:none;stroke:#00AEEF;stroke-width:0.5;opacity:1.0;" x1="1391.3" x2="1391.3" y1="1030.79" y2="1150.12"/>
  <line id="right-margin" style="fill:none;stroke:#00AEEF;stroke-width:0.5;opacity:1.0;" x1="1508.39" x2="1508.39" y1="1030.79" y2="1150.12"/>
 </g>
 <g id="Symbols">
  <g id="Black-L" transform="matrix(1 0 0 1 2854.05 1556)">
   <path d="M79.3457 32.8613C116.748 32.8613 147.412 2.19727 147.412-35.2051C147.412-72.6074 116.748-103.271 79.2969-103.271C41.8945-103.271 11.2793-72.6074 11.2793-35.2051C11.2793 2.19727 41.9434 32.8613 79.3457 32.8613ZM79.3457 12.4023C52.9785 12.4023 31.7383-8.83789 31.7383-35.2051C31.7383-61.5723 52.9297-82.8125 79.2969-82.8125C105.664-82.8125 126.953-61.5723 126.953-35.2051C127.002-8.83789 105.713 12.4023 79.3457 12.4023ZM104.688-31.3477C107.52-32.959 107.422-37.2559 104.688-38.8672L67.2852-60.5957C64.2578-62.3535 60.3516-60.5957 60.3516-57.2754L60.3516-13.0371C60.3516-9.7168 64.1602-7.95898 67.2852-9.76562Z"/>
  </g>
  <g id="Heavy-L" transform="matrix(1 0 0 1 2558.39 1556)">
   <path d="M78.2715 31.7871C115.088 31.7871 145.312 1.5625 145.312-35.2051C145.312-72.0215 115.039-102.246 78.2715-102.246C41.4551-102.246 11.2793-72.0215 11.2793-35.2051C11.2793 1.5625 41.5039 31.7871 78.2715 31.7871ZM78.2715 14.0137C51.0254 14.0137 29.0527-7.95898 29.0527-35.2051C29.0527-62.5 50.9766-84.4727 78.2715-84.4727C105.518-84.4727 127.49-62.5 127.539-35.2051C127.539-7.95898 105.566 14.0137 78.2715 14.0137ZM103.32-31.4941C106.055-33.0566 106.006-37.1582 103.32-38.7207L66.2598-60.4004C63.3301-62.1094 59.5703-60.498 59.5703-57.2754L59.5703-13.0371C59.5703-9.86328 63.2324-8.20312 66.2598-9.96094Z"/>
  </g>
  <g id="Bold-L" transform="matrix(1 0 0 1 2262.88 1556)">
   <path d="M77.0996 30.5664C113.232 30.5664 142.92 0.878906 142.92-35.2539C142.92-71.3379 113.184-101.074 77.0508-101.074C40.9668-101.074 11.2793-71.3379 11.2793-35.2539C11.2793 0.878906 41.0156 30.5664 77.0996 30.5664ZM77.0996 15.8203C48.8281 15.8203 26.0742-6.98242 26.0742-35.2539C26.0742-63.5254 48.7793-86.2793 77.0508-86.2793C105.371-86.2793 128.125-63.5254 128.174-35.2539C128.174-6.98242 105.371 15.8203 77.0996 15.8203ZM101.807-31.6406C104.443-33.2031 104.395-37.0605 101.807-38.623L65.0879-60.2051C62.3047-61.8164 58.6914-60.3516 58.6914-57.2754L58.6914-13.0371C58.6914-10.0098 62.207-8.44727 65.0879-10.1562Z"/>
  </g>
  <g id="Semibold-L" transform="matrix(1 0 0 1 1966.97 1556)">
   <path d="M76.2695 29.7363C111.914 29.7363 141.309 0.390625 141.309-35.2539C141.309-70.8984 111.865-100.244 76.2695-100.244C40.625-100.244 11.2793-70.8984 11.2793-35.2539C11.2793 0.390625 40.6738 29.7363 76.2695 29.7363ZM76.2695 17.041C47.3145 17.041 24.0234-6.25 24.0234-35.2539C24.0234-64.209 47.2656-87.5488 76.2695-87.5488C105.225-87.5488 128.564-64.209 128.613-35.2539C128.662-6.25 105.273 17.041 76.2695 17.041ZM100.732-31.7383C103.369-33.252 103.32-36.9629 100.732-38.5254L64.3066-60.0586C61.6211-61.6211 58.1055-60.2539 58.1055-57.2754L58.1055-13.0859C58.1055-10.1074 61.4746-8.59375 64.3066-10.3027Z"/>
  </g>
  <g id="Medium-L" transform="matrix(1 0 0 1 1670.87 1556)">
   <path d="M75.6836 29.1504C110.938 29.1504 140.088 0 140.088-35.2539C140.088-70.5078 110.889-99.6582 75.6348-99.6582C40.3809-99.6582 11.2793-70.5078 11.2793-35.2539C11.2793 0 40.3809 29.1504 75.6836 29.1504ZM75.6836 18.0176C46.1426 18.0176 22.4609-5.76172 22.4609-35.2539C22.4609-64.7461 46.1426-88.5254 75.6348-88.5254C105.127-88.5254 128.906-64.7461 128.906-35.2539C128.955-5.76172 105.176 18.0176 75.6836 18.0176ZM99.9512-31.8359C102.539-33.3496 102.49-36.9141 99.9512-38.4277L63.7207-59.9609C61.084-61.4746 57.666-60.2051 57.666-57.2754L57.666-13.0859C57.666-10.1562 60.9375-8.74023 63.7207-10.4492Z"/>
  </g>
  <g id="Regular-L" transform="matrix(1 0 0 1 1374.97 1556)">
   <path d="M74.8535 28.3203C109.668 28.3203 138.477-0.488281 138.477-35.2539C138.477-70.0684 109.619-98.877 74.8047-98.877C40.0391-98.877 11.2793-70.0684 11.2793-35.2539C11.2793-0.488281 40.0879 28.3203 74.8535 28.3203ZM74.8535 19.2383C44.6777 19.2383 20.4102-5.07812 20.4102-35.2539C20.4102-65.4785 44.6289-89.7461 74.8047-89.7461C105.029-89.7461 129.297-65.4785 129.346-35.2539C129.395-5.07812 105.078 19.2383 74.8535 19.2383ZM98.877-31.9336C101.416-33.3984 101.367-36.8652 98.877-38.3301L62.9395-59.8145C60.4004-61.2793 57.0312-60.1074 57.0312-57.2754L57.0312-13.0859C57.0312-10.2539 60.2051-8.93555 62.9395-10.5469Z"/>
  </g>
  <g id="Light-L" transform="matrix(1 0 0 1 1079.18 1556)">
   <path d="M73.9258 27.3926C108.301 27.3926 136.621-0.927734 136.621-35.2539C136.621-69.6289 108.252-97.9492 73.9258-97.9492C39.5508-97.9492 11.2793-69.6289 11.2793-35.2539C11.2793-0.927734 39.5996 27.3926 73.9258 27.3926ZM73.9258 20.5078C43.1152 20.5078 18.2129-4.44336 18.2129-35.2539C18.2129-66.1133 43.0664-91.0156 73.9258-91.0156C104.736-91.0156 129.688-66.1133 129.736-35.2539C129.736-4.44336 104.785 20.5078 73.9258 20.5078ZM97.9004-32.0801C100.293-33.4961 100.244-36.6699 97.9004-38.0859L61.8652-59.8145C59.5215-61.1816 56.4941-60.0586 56.4941-57.5195L56.4941-12.793C56.4941-10.2539 59.375-9.0332 61.8652-10.498Z"/>
  </g>
  <g id="Thin-L" transform="matrix(1 0 0 1 783.693 1556)">
   <path d="M72.7051 26.1719C106.494 26.1719 134.18-1.51367 134.18-35.2539C134.18-69.043 106.494-96.7285 72.7051-96.7285C38.9648-96.7285 11.2793-69.043 11.2793-35.2539C11.2793-1.51367 38.9648 26.1719 72.7051 26.1719ZM72.7051 22.168C41.0156 22.168 15.2832-3.56445 15.2832-35.2539C15.2832-66.9922 41.0156-92.7246 72.7051-92.7246C104.395-92.7246 130.176-66.9922 130.176-35.2539C130.176-3.56445 104.443 22.168 72.7051 22.168ZM96.582-32.3242C98.7305-33.6426 98.7305-36.377 96.582-37.6953L60.4492-59.8145C58.3496-61.0352 55.8105-59.9609 55.8105-57.8125L55.8105-12.4512C55.8105-10.2539 58.3008-9.17969 60.4492-10.4492Z"/>
  </g>
  <g id="Ultralight-L" transform="matrix(1 0 0 1 487.616 1556)">
   <path d="M72.1191 25.5371C105.566 25.5371 132.91-1.80664 132.91-35.2539C132.91-68.75 105.566-96.0938 72.1191-96.0938C38.623-96.0938 11.2793-68.75 11.2793-35.2539C11.2793-1.80664 38.623 25.5371 72.1191 25.5371ZM72.1191 23.0469C39.9414 23.0469 13.7695-3.125 13.7695-35.2539C13.7695-67.4316 39.9414-93.6035 72.1191-93.6035C104.248-93.6035 130.42-67.4316 130.42-35.2539C130.42-3.125 104.248 23.0469 72.1191 23.0469ZM95.8984-32.4219C97.9492-33.6914 97.9492-36.2305 95.8984-37.5L59.668-59.8145C57.7637-60.9863 55.4688-59.9609 55.4688-57.959L55.4688-12.2559C55.4688-10.2539 57.7637-9.22852 59.668-10.4004Z"/>
  </g>
  <g id="Black-M" transform="matrix(1 0 0 1 2870.97 1126)">
   <path d="M62.4023 18.457C91.9922 18.457 116.113-5.61523 116.113-35.2051C116.113-64.7949 91.9922-88.8672 62.4023-88.8672C32.8125-88.8672 8.74023-64.7949 8.74023-35.2051C8.74023-5.61523 32.8125 18.457 62.4023 18.457ZM62.4023 0.195312C42.8711 0.195312 27.002-15.625 27.002-35.2051C27.002-54.7363 42.8711-70.6055 62.4023-70.6055C81.9824-70.6055 97.8027-54.7363 97.8027-35.2051C97.8027-15.625 81.9824 0.195312 62.4023 0.195312ZM82.4707-32.1289C84.6191-33.3984 84.5703-36.8164 82.4707-38.0859L52.9297-55.1758C50.5859-56.543 47.5586-55.0293 47.5586-52.3926L47.5586-17.8711C47.5586-15.2832 50.5859-13.8672 52.9297-15.2344Z"/>
  </g>
  <g id="Heavy-M" transform="matrix(1 0 0 1 2575.19 1126)">
   <path d="M61.5234 17.5293C90.5273 17.5293 114.258-6.20117 114.258-35.2051C114.258-64.2578 90.5273-87.9883 61.4746-87.9883C32.4707-87.9883 8.74023-64.2578 8.74023-35.2051C8.74023-6.20117 32.4707 17.5293 61.5234 17.5293ZM61.5234 1.61133C41.1133 1.61133 24.6582-14.8438 24.6582-35.2051C24.6582-55.6152 41.1133-72.0703 61.4746-72.0703C81.8848-72.0703 98.3398-55.6152 98.3398-35.2051C98.3398-14.8438 81.8848 1.61133 61.5234 1.61133ZM81.2012-32.2266C83.3496-33.4961 83.3008-36.7676 81.2012-37.9883L52.0996-54.9316C49.8047-56.2988 46.8262-54.9316 46.8262-52.3438L46.8262-17.9688C46.8262-15.4297 49.7559-14.0625 52.0996-15.4297Z"/>
  </g>
  <g id="Bold-M" transform="matrix(1 0 0 1 2279.5 1126)">
   <path d="M60.498 16.5039C88.8672 16.5039 112.207-6.83594 112.207-35.2051C112.207-63.623 88.8672-86.9629 60.4492-86.9629C32.0312-86.9629 8.74023-63.623 8.74023-35.2051C8.74023-6.83594 32.0801 16.5039 60.498 16.5039ZM60.498 3.22266C39.1602 3.22266 22.0703-13.916 22.0703-35.2051C22.0703-56.543 39.1602-73.6816 60.4492-73.6816C81.7383-73.6816 98.9258-56.543 98.9258-35.2051C98.9746-13.916 81.7871 3.22266 60.498 3.22266ZM79.834-32.373C81.9336-33.5938 81.8848-36.7188 79.834-37.9395L51.1719-54.7363C48.9258-56.0059 46.0449-54.7852 46.0449-52.2949L46.0449-18.0664C46.0449-15.5762 48.8281-14.3066 51.1719-15.6738Z"/>
  </g>
  <g id="Semibold-M" transform="matrix(1 0 0 1 1983.5 1126)">
   <path d="M59.7656 15.8203C87.7441 15.8203 110.791-7.27539 110.791-35.2539C110.791-63.2324 87.6953-86.2793 59.7656-86.2793C31.7871-86.2793 8.74023-63.2324 8.74023-35.2539C8.74023-7.27539 31.7871 15.8203 59.7656 15.8203ZM59.7656 4.3457C37.8418 4.3457 20.2637-13.3301 20.2637-35.2539C20.2637-57.1777 37.793-74.8047 59.7656-74.8047C81.6895-74.8047 99.3164-57.1777 99.3652-35.2539C99.3652-13.3301 81.6895 4.3457 59.7656 4.3457ZM78.8574-32.4219C80.957-33.6426 80.9082-36.6699 78.8574-37.8906L50.5371-54.541C48.3398-55.8105 45.5078-54.6875 45.5078-52.2461L45.5078-18.1152C45.5078-15.6738 48.1934-14.502 50.5371-15.8691Z"/>
  </g>
  <g id="Medium-M" transform="matrix(1 0 0 1 1687.3 1126)">
   <path d="M59.2285 15.2344C86.9141 15.2344 109.766-7.61719 109.766-35.2539C109.766-62.8906 86.8652-85.7422 59.1797-85.7422C31.543-85.7422 8.74023-62.8906 8.74023-35.2539C8.74023-7.61719 31.5918 15.2344 59.2285 15.2344ZM59.2285 5.17578C36.8164 5.17578 18.8965-12.8418 18.8965-35.2539C18.8965-57.666 36.8164-75.6348 59.1797-75.6348C81.5918-75.6348 99.6094-57.666 99.6582-35.2539C99.707-12.8418 81.6406 5.17578 59.2285 5.17578ZM78.1738-32.5195C80.2246-33.6914 80.1758-36.6699 78.1738-37.8418L50.0488-54.4434C47.9004-55.6641 45.0684-54.6387 45.0684-52.2461L45.0684-18.1641C45.0684-15.7715 47.7539-14.5996 50.0488-15.9668Z"/>
  </g>
  <g id="Regular-M" transform="matrix(1 0 0 1 1391.3 1126)">
   <path d="M58.5449 14.5508C85.791 14.5508 108.35-8.05664 108.35-35.2539C108.35-62.5 85.7422-85.0586 58.4961-85.0586C31.2988-85.0586 8.74023-62.5 8.74023-35.2539C8.74023-8.05664 31.3477 14.5508 58.5449 14.5508ZM58.5449 6.25C35.498 6.25 17.0898-12.207 17.0898-35.2539C17.0898-58.3008 35.4492-76.7578 58.4961-76.7578C81.543-76.7578 100-58.3008 100.049-35.2539C100.098-12.207 81.5918 6.25 58.5449 6.25ZM77.1973-32.5684C79.248-33.7891 79.1992-36.6211 77.1973-37.793L49.4141-54.248C47.3145-55.5176 44.5312-54.541 44.5312-52.1973L44.5312-18.2129C44.5312-15.8691 47.1191-14.7949 49.4141-16.1621Z"/>
  </g>
  <g id="Light-M" transform="matrix(1 0 0 1 1095.42 1126)">
   <path d="M57.7148 13.7207C84.5215 13.7207 106.689-8.44727 106.689-35.2539C106.689-62.1094 84.5215-84.2285 57.666-84.2285C30.8594-84.2285 8.74023-62.1094 8.74023-35.2539C8.74023-8.44727 30.9082 13.7207 57.7148 13.7207ZM57.7148 7.37305C34.082 7.37305 15.0879-11.6699 15.0879-35.2539C15.0879-58.8867 34.082-77.9297 57.666-77.9297C81.2988-77.9297 100.342-58.8867 100.391-35.2539C100.391-11.6699 81.3477 7.37305 57.7148 7.37305ZM76.3184-32.7148C78.2227-33.8379 78.1738-36.4258 76.3184-37.5488L48.4375-54.248C46.5332-55.4199 44.043-54.4922 44.043-52.3926L44.043-17.9688C44.043-15.8691 46.3867-14.8926 48.4375-16.1133Z"/>
  </g>
  <g id="Thin-M" transform="matrix(1 0 0 1 799.806 1126)">
   <path d="M56.6406 12.5977C82.9102 12.5977 104.492-8.98438 104.492-35.2539C104.492-61.5723 82.9102-83.1543 56.5918-83.1543C30.3223-83.1543 8.74023-61.5723 8.74023-35.2539C8.74023-8.98438 30.3223 12.5977 56.6406 12.5977ZM56.6406 8.88672C32.2266 8.88672 12.4512-10.8887 12.4512-35.2539C12.4512-59.6191 32.2266-79.4434 56.5918-79.4434C81.0059-79.4434 100.781-59.6191 100.781-35.2539C100.781-10.8887 81.0059 8.88672 56.6406 8.88672ZM75.1465-32.9102C76.8555-33.9844 76.8555-36.1816 75.1465-37.207L47.1191-54.248C45.459-55.2734 43.4082-54.4434 43.4082-52.6367L43.4082-17.6758C43.4082-15.8691 45.4102-14.9902 47.1191-16.0156Z"/>
  </g>
  <g id="Ultralight-M" transform="matrix(1 0 0 1 503.656 1126)">
   <path d="M56.0547 12.0605C82.0801 12.0605 103.369-9.22852 103.369-35.2539C103.369-61.2793 82.0801-82.5684 56.0547-82.5684C30.0293-82.5684 8.74023-61.2793 8.74023-35.2539C8.74023-9.22852 30.0293 12.0605 56.0547 12.0605ZM56.0547 9.66797C31.2988 9.66797 11.1328-10.498 11.1328-35.2539C11.1328-60.0586 31.2988-80.1758 56.0547-80.1758C80.8594-80.1758 100.977-60.0586 100.977-35.2539C100.977-10.498 80.8594 9.66797 56.0547 9.66797ZM74.5117-33.0078C76.123-34.0332 76.123-36.084 74.5117-37.0605L46.4844-54.248C44.9219-55.1758 43.0664-54.3945 43.0664-52.7832L43.0664-17.4805C43.0664-15.8691 44.9219-15.0879 46.4844-16.0156Z"/>
  </g>
  <g id="Black-S" transform="matrix(1 0 0 1 2884.57 696)">
   <path d="M48.8281 6.78711C71.9727 6.78711 90.8203-12.0605 90.8203-35.2051C90.8203-58.3496 71.9727-77.1973 48.8281-77.1973C25.6836-77.1973 6.83594-58.3496 6.83594-35.2051C6.83594-12.0605 25.6836 6.78711 48.8281 6.78711ZM48.8281-7.37305C33.4473-7.37305 20.9961-19.8242 20.9961-35.2051C20.9961-50.5859 33.4473-63.0371 48.8281-63.0371C64.209-63.0371 76.6602-50.5859 76.6602-35.2051C76.6602-19.8242 64.209-7.37305 48.8281-7.37305ZM64.502-32.8125C66.2109-33.7891 66.1621-36.4746 64.502-37.4512L41.4062-50.8301C39.5508-51.9043 37.207-50.7324 37.207-48.6816L37.207-21.6309C37.207-19.6289 39.5508-18.5059 41.4062-19.5801Z"/>
  </g>
  <g id="Heavy-S" transform="matrix(1 0 0 1 2588.47 696)">
   <path d="M48.2422 6.15234C70.9961 6.15234 89.5996-12.4512 89.5996-35.2051C89.5996-57.959 70.9961-76.6113 48.1934-76.6113C25.4395-76.6113 6.83594-57.959 6.83594-35.2051C6.83594-12.4512 25.4395 6.15234 48.2422 6.15234ZM48.2422-6.39648C32.2754-6.39648 19.4336-19.2871 19.4336-35.2051C19.4336-51.1719 32.2754-64.0137 48.1934-64.0137C64.1602-64.0137 77.002-51.1719 77.0508-35.2051C77.0508-19.2871 64.1602-6.39648 48.2422-6.39648ZM63.6719-32.8613C65.332-33.8379 65.2832-36.4746 63.6719-37.4512L40.8691-50.6836C39.0625-51.709 36.7188-50.6348 36.7188-48.6328L36.7188-21.7285C36.7188-19.7266 39.0137-18.6523 40.8691-19.7754Z"/>
  </g>
  <g id="Bold-S" transform="matrix(1 0 0 1 2292.44 696)">
   <path d="M47.5586 5.46875C69.873 5.46875 88.2324-12.8906 88.2324-35.2539C88.2324-57.5684 69.873-75.9277 47.5098-75.9277C25.1953-75.9277 6.83594-57.5684 6.83594-35.2539C6.83594-12.8906 25.1953 5.46875 47.5586 5.46875ZM47.5586-5.32227C30.957-5.32227 17.6758-18.6523 17.6758-35.2539C17.6758-51.8066 30.957-65.1367 47.5098-65.1367C64.1113-65.1367 77.4414-51.8066 77.4414-35.2539C77.4414-18.6523 64.1113-5.32227 47.5586-5.32227ZM62.6953-32.959C64.4043-33.9355 64.3555-36.4258 62.6953-37.4023L40.2832-50.4883C38.4766-51.5137 36.1328-50.5371 36.1328-48.5352L36.1328-21.8262C36.1328-19.8242 38.3789-18.8477 40.2832-19.9219Z"/>
  </g>
  <g id="Semibold-S" transform="matrix(1 0 0 1 1996.2 696)">
   <path d="M47.0703 4.98047C69.0918 4.98047 87.3047-13.1836 87.3047-35.2539C87.3047-57.2754 69.0918-75.4883 47.0215-75.4883C25-75.4883 6.83594-57.2754 6.83594-35.2539C6.83594-13.1836 25.0488 4.98047 47.0703 4.98047ZM47.0703-4.58984C30.0781-4.58984 16.4551-18.2129 16.4551-35.2539C16.4551-52.2461 30.0293-65.8691 47.0215-65.8691C64.0625-65.8691 77.6855-52.2461 77.7344-35.2539C77.7344-18.2129 64.0625-4.58984 47.0703-4.58984ZM62.0605-33.0078C63.7207-33.9844 63.6719-36.4258 62.0605-37.4023L39.8926-50.3418C38.0859-51.416 35.7422-50.4883 35.7422-48.4863L35.7422-21.9238C35.7422-19.9219 37.9883-18.9453 39.8926-20.0684Z"/>
  </g>
  <g id="Medium-S" transform="matrix(1 0 0 1 1699.83 696)">
   <path d="M46.7285 4.63867C68.5547 4.63867 86.6211-13.4277 86.6211-35.2539C86.6211-57.0801 68.5059-75.1465 46.6797-75.1465C24.8535-75.1465 6.83594-57.0801 6.83594-35.2539C6.83594-13.4277 24.9023 4.63867 46.7285 4.63867ZM46.7285-4.00391C29.3945-4.00391 15.5273-17.9199 15.5273-35.2539C15.5273-52.5879 29.3457-66.4551 46.6797-66.4551C64.0137-66.4551 77.8809-52.5879 77.9297-35.2539C77.9785-17.9199 64.0625-4.00391 46.7285-4.00391ZM61.5234-33.0078C63.2324-33.9844 63.1836-36.4258 61.5234-37.4023L39.5508-50.293C37.793-51.2695 35.4492-50.4395 35.4492-48.4863L35.4492-21.9727C35.4492-19.9707 37.6465-19.043 39.5508-20.166Z"/>
  </g>
  <g id="Regular-S" transform="matrix(1 0 0 1 1403.58 696)">
   <path d="M46.2402 4.15039C67.7734 4.15039 85.6934-13.7207 85.6934-35.2539C85.6934-56.7871 67.7246-74.6582 46.1914-74.6582C24.707-74.6582 6.83594-56.7871 6.83594-35.2539C6.83594-13.7207 24.7559 4.15039 46.2402 4.15039ZM46.2402-3.27148C28.5156-3.27148 14.3555-17.4805 14.3555-35.2539C14.3555-53.0273 28.4668-67.2363 46.1914-67.2363C63.9648-67.2363 78.1738-53.0273 78.2227-35.2539C78.2715-17.4805 64.0137-3.27148 46.2402-3.27148ZM60.8887-33.0566C62.5977-34.0332 62.5488-36.377 60.8887-37.3535L39.1602-50.1465C37.4512-51.1719 35.1074-50.3906 35.1074-48.4375L35.1074-22.0215C35.1074-20.0684 37.2559-19.1406 39.1602-20.3125Z"/>
  </g>
  <g id="Light-S" transform="matrix(1 0 0 1 1107.6 696)">
   <path d="M45.5078 3.41797C66.6992 3.41797 84.2285-14.0625 84.2285-35.2539C84.2285-56.4453 66.6504-73.9258 45.5078-73.9258C24.3164-73.9258 6.83594-56.4453 6.83594-35.2539C6.83594-14.0625 24.3652 3.41797 45.5078 3.41797ZM45.5078-2.29492C27.2461-2.29492 12.5977-16.9922 12.5977-35.2539C12.5977-53.5156 27.1973-68.2129 45.5078-68.2129C63.7695-68.2129 78.4668-53.5156 78.5156-35.2539C78.5156-16.9922 63.8184-2.29492 45.5078-2.29492ZM60.1074-33.2031C61.6699-34.1309 61.6211-36.2305 60.1074-37.1582L38.3301-50.1465C36.7188-51.0742 34.668-50.3418 34.668-48.584L34.668-21.8262C34.668-20.0684 36.6211-19.2383 38.3301-20.2637Z"/>
  </g>
  <g id="Thin-S" transform="matrix(1 0 0 1 811.867 696)">
   <path d="M44.5801 2.49023C65.2832 2.49023 82.2754-14.5508 82.2754-35.2539C82.2754-55.957 65.2344-72.998 44.5312-72.998C23.8281-72.998 6.83594-55.957 6.83594-35.2539C6.83594-14.5508 23.877 2.49023 44.5801 2.49023ZM44.5801-0.927734C25.5859-0.927734 10.2539-16.3086 10.2539-35.2539C10.2539-54.1992 25.5859-69.5801 44.5312-69.5801C63.5254-69.5801 78.8574-54.1992 78.8574-35.2539C78.8574-16.3086 63.5254-0.927734 44.5801-0.927734ZM59.082-33.3984C60.498-34.2285 60.4492-36.0352 59.082-36.8652L37.207-50.1465C35.8398-50.9766 34.1309-50.293 34.1309-48.8281L34.1309-21.5332C34.1309-20.0684 35.791-19.3359 37.207-20.2148Z"/>
  </g>
  <g id="Ultralight-S" transform="matrix(1 0 0 1 515.644 696)">
   <path d="M44.043 1.95312C64.502 1.95312 81.2988-14.7949 81.2988-35.2539C81.2988-55.7129 64.502-72.4609 44.043-72.4609C23.584-72.4609 6.83594-55.7129 6.83594-35.2539C6.83594-14.7949 23.584 1.95312 44.043 1.95312ZM44.043-0.244141C24.7559-0.244141 9.08203-15.9668 9.08203-35.2539C9.08203-54.541 24.7559-70.2637 44.043-70.2637C63.3789-70.2637 79.0527-54.541 79.0527-35.2539C79.0527-15.9668 63.3789-0.244141 44.043-0.244141ZM58.5449-33.4961C59.8633-34.2773 59.8633-35.9375 58.5449-36.7188L36.6211-50.1465C35.3516-50.8789 33.8379-50.2441 33.8379-48.9258L33.8379-21.3867C33.8379-20.0684 35.3516-19.4336 36.6211-20.166Z"/>
  </g>
 </g>
</svg>
